<mxfile host="app.diagrams.net" modified="2023-10-03T09:11:04.745Z" agent="Mozilla/5.0 (X11; Linux x86_64; rv:109.0) Gecko/20100101 Firefox/117.0" etag="LfwmGgtwrdKZ77HDSNHl" version="21.8.2" type="github">
  <diagram name="Página-1" id="507ssJq4naJnl4tNUfq0">
    <mxGraphModel dx="3405" dy="1400" grid="1" gridSize="10" guides="1" tooltips="1" connect="1" arrows="1" fold="1" page="1" pageScale="1" pageWidth="827" pageHeight="1169" math="0" shadow="0">
      <root>
        <mxCell id="0" />
        <mxCell id="1" parent="0" />
        <mxCell id="ju82WPJQELYJs9G-tPqT-4" style="edgeStyle=orthogonalEdgeStyle;rounded=0;orthogonalLoop=1;jettySize=auto;html=1;exitX=1;exitY=0.5;exitDx=0;exitDy=0;entryX=0;entryY=0.5;entryDx=0;entryDy=0;strokeWidth=6;endArrow=none;endFill=0;" parent="1" source="hcqY7P8i4j6jx_X3Lm_S-1" edge="1">
          <mxGeometry relative="1" as="geometry">
            <mxPoint x="345.00000000001" y="314.9999999999999" as="targetPoint" />
          </mxGeometry>
        </mxCell>
        <mxCell id="ju82WPJQELYJs9G-tPqT-5" style="edgeStyle=orthogonalEdgeStyle;rounded=0;orthogonalLoop=1;jettySize=auto;html=1;exitX=1;exitY=0.25;exitDx=0;exitDy=0;entryX=0;entryY=0.5;entryDx=0;entryDy=0;strokeWidth=5;endArrow=none;endFill=0;" parent="1" source="hcqY7P8i4j6jx_X3Lm_S-1" target="hcqY7P8i4j6jx_X3Lm_S-117" edge="1">
          <mxGeometry relative="1" as="geometry" />
        </mxCell>
        <mxCell id="ju82WPJQELYJs9G-tPqT-6" style="edgeStyle=orthogonalEdgeStyle;rounded=0;orthogonalLoop=1;jettySize=auto;html=1;exitX=1;exitY=0.75;exitDx=0;exitDy=0;entryX=0;entryY=0.5;entryDx=0;entryDy=0;strokeWidth=5;endArrow=none;endFill=0;" parent="1" source="hcqY7P8i4j6jx_X3Lm_S-1" target="hcqY7P8i4j6jx_X3Lm_S-119" edge="1">
          <mxGeometry relative="1" as="geometry" />
        </mxCell>
        <mxCell id="hcqY7P8i4j6jx_X3Lm_S-1" value="" style="rounded=0;whiteSpace=wrap;html=1;fillColor=#f5f5f5;fontColor=#333333;strokeColor=#666666;strokeWidth=5;" parent="1" vertex="1">
          <mxGeometry x="-195" y="190" width="500" height="250" as="geometry" />
        </mxCell>
        <mxCell id="hcqY7P8i4j6jx_X3Lm_S-33" style="edgeStyle=orthogonalEdgeStyle;rounded=0;orthogonalLoop=1;jettySize=auto;html=1;exitX=1;exitY=0.5;exitDx=0;exitDy=0;entryX=0;entryY=0.5;entryDx=0;entryDy=0;strokeWidth=5;endArrow=none;endFill=0;" parent="1" source="hcqY7P8i4j6jx_X3Lm_S-2" target="hcqY7P8i4j6jx_X3Lm_S-30" edge="1">
          <mxGeometry relative="1" as="geometry" />
        </mxCell>
        <mxCell id="hcqY7P8i4j6jx_X3Lm_S-2" value="&lt;font style=&quot;font-size: 27px;&quot;&gt;Deck&lt;/font&gt;" style="rounded=0;whiteSpace=wrap;html=1;fillColor=#1ba1e2;strokeColor=#006EAF;fontColor=#ffffff;strokeWidth=5;" parent="1" vertex="1">
          <mxGeometry x="-545" y="265" width="90" height="40" as="geometry" />
        </mxCell>
        <mxCell id="m84s4OXWv2M9TysQhL6w-13" value="" style="edgeStyle=orthogonalEdgeStyle;rounded=0;orthogonalLoop=1;jettySize=auto;html=1;endArrow=none;endFill=0;strokeWidth=5;" parent="1" source="hcqY7P8i4j6jx_X3Lm_S-3" target="m84s4OXWv2M9TysQhL6w-12" edge="1">
          <mxGeometry relative="1" as="geometry" />
        </mxCell>
        <mxCell id="hcqY7P8i4j6jx_X3Lm_S-3" value="&lt;font style=&quot;font-size: 27px;&quot;&gt;Tournament&lt;/font&gt;" style="rounded=0;whiteSpace=wrap;html=1;fillColor=#1ba1e2;strokeColor=#006EAF;fontColor=#ffffff;strokeWidth=5;" parent="1" vertex="1">
          <mxGeometry y="360" width="160" height="40" as="geometry" />
        </mxCell>
        <mxCell id="hcqY7P8i4j6jx_X3Lm_S-31" style="edgeStyle=orthogonalEdgeStyle;rounded=0;orthogonalLoop=1;jettySize=auto;html=1;exitX=0;exitY=0.5;exitDx=0;exitDy=0;entryX=1;entryY=0.5;entryDx=0;entryDy=0;strokeWidth=5;endArrow=none;endFill=0;" parent="1" source="hcqY7P8i4j6jx_X3Lm_S-4" target="hcqY7P8i4j6jx_X3Lm_S-30" edge="1">
          <mxGeometry relative="1" as="geometry" />
        </mxCell>
        <mxCell id="m84s4OXWv2M9TysQhL6w-10" value="" style="edgeStyle=orthogonalEdgeStyle;rounded=0;orthogonalLoop=1;jettySize=auto;html=1;endArrow=none;endFill=0;strokeWidth=5;" parent="1" source="hcqY7P8i4j6jx_X3Lm_S-4" edge="1">
          <mxGeometry relative="1" as="geometry">
            <mxPoint x="25" y="284.99999999999994" as="targetPoint" />
          </mxGeometry>
        </mxCell>
        <mxCell id="m84s4OXWv2M9TysQhL6w-28" style="edgeStyle=orthogonalEdgeStyle;rounded=0;orthogonalLoop=1;jettySize=auto;html=1;exitX=0.5;exitY=1;exitDx=0;exitDy=0;endArrow=none;endFill=0;strokeWidth=5;" parent="1" source="hcqY7P8i4j6jx_X3Lm_S-4" edge="1">
          <mxGeometry relative="1" as="geometry">
            <mxPoint x="-90" y="470" as="targetPoint" />
          </mxGeometry>
        </mxCell>
        <mxCell id="hcqY7P8i4j6jx_X3Lm_S-4" value="&lt;pre dir=&quot;ltr&quot; style=&quot;text-align: left; line-height: 100%; font-size: 27px;&quot; id=&quot;tw-target-text&quot; data-placeholder=&quot;Traducción&quot; class=&quot;tw-data-text tw-text-large tw-ta&quot;&gt;&lt;font style=&quot;font-size: 27px;&quot;&gt;User&lt;/font&gt;&lt;/pre&gt;" style="rounded=0;whiteSpace=wrap;html=1;fillColor=#1ba1e2;strokeColor=#006EAF;fontColor=#ffffff;strokeWidth=5;" parent="1" vertex="1">
          <mxGeometry x="-135" y="265" width="90" height="40" as="geometry" />
        </mxCell>
        <mxCell id="m84s4OXWv2M9TysQhL6w-8" style="edgeStyle=orthogonalEdgeStyle;rounded=0;orthogonalLoop=1;jettySize=auto;html=1;entryX=1;entryY=0.5;entryDx=0;entryDy=0;endArrow=none;endFill=0;strokeWidth=5;" parent="1" source="hcqY7P8i4j6jx_X3Lm_S-8" edge="1">
          <mxGeometry relative="1" as="geometry">
            <mxPoint x="135" y="284.99999999999994" as="targetPoint" />
          </mxGeometry>
        </mxCell>
        <mxCell id="hcqY7P8i4j6jx_X3Lm_S-8" value="&lt;font style=&quot;font-size: 27px;&quot;&gt;Date&lt;/font&gt;" style="rounded=0;whiteSpace=wrap;html=1;fillColor=#1ba1e2;strokeColor=#006EAF;fontColor=#ffffff;perimeterSpacing=0;strokeWidth=5;" parent="1" vertex="1">
          <mxGeometry x="215" y="265" width="80" height="40" as="geometry" />
        </mxCell>
        <mxCell id="hcqY7P8i4j6jx_X3Lm_S-19" style="edgeStyle=orthogonalEdgeStyle;rounded=0;orthogonalLoop=1;jettySize=auto;html=1;exitX=1;exitY=0.5;exitDx=0;exitDy=0;entryX=1;entryY=0.5;entryDx=0;entryDy=0;" parent="1" edge="1">
          <mxGeometry relative="1" as="geometry">
            <mxPoint x="150" y="285" as="sourcePoint" />
            <mxPoint x="150" y="285" as="targetPoint" />
          </mxGeometry>
        </mxCell>
        <mxCell id="hcqY7P8i4j6jx_X3Lm_S-16" style="edgeStyle=orthogonalEdgeStyle;rounded=0;orthogonalLoop=1;jettySize=auto;html=1;exitX=0.5;exitY=1;exitDx=0;exitDy=0;" parent="1" edge="1">
          <mxGeometry relative="1" as="geometry">
            <mxPoint x="95" y="320" as="sourcePoint" />
            <mxPoint x="95" y="320" as="targetPoint" />
          </mxGeometry>
        </mxCell>
        <mxCell id="hcqY7P8i4j6jx_X3Lm_S-22" style="edgeStyle=orthogonalEdgeStyle;rounded=0;orthogonalLoop=1;jettySize=auto;html=1;exitX=0.5;exitY=1;exitDx=0;exitDy=0;" parent="1" source="hcqY7P8i4j6jx_X3Lm_S-1" target="hcqY7P8i4j6jx_X3Lm_S-1" edge="1">
          <mxGeometry relative="1" as="geometry" />
        </mxCell>
        <mxCell id="hcqY7P8i4j6jx_X3Lm_S-24" value="&lt;font style=&quot;font-size: 27px;&quot;&gt;Match&lt;/font&gt;" style="text;html=1;strokeColor=none;fillColor=none;align=center;verticalAlign=middle;whiteSpace=wrap;rounded=0;" parent="1" vertex="1">
          <mxGeometry x="205" y="390" width="60" height="30" as="geometry" />
        </mxCell>
        <mxCell id="hcqY7P8i4j6jx_X3Lm_S-30" value="&lt;div class=&quot;QmZWSe&quot;&gt;&lt;div class=&quot;DHcWmd&quot;&gt;&lt;/div&gt;&lt;/div&gt;&lt;pre dir=&quot;ltr&quot; style=&quot;text-align: left; font-size: 17px;&quot; id=&quot;tw-target-text&quot; data-placeholder=&quot;Traducción&quot; class=&quot;tw-data-text tw-text-large tw-ta&quot;&gt;Possess&lt;/pre&gt;" style="rhombus;whiteSpace=wrap;html=1;fillColor=#008a00;fontColor=#ffffff;strokeColor=#005700;strokeWidth=5;" parent="1" vertex="1">
          <mxGeometry x="-365" y="250" width="110" height="70" as="geometry" />
        </mxCell>
        <mxCell id="m84s4OXWv2M9TysQhL6w-22" style="edgeStyle=orthogonalEdgeStyle;rounded=0;orthogonalLoop=1;jettySize=auto;html=1;exitX=1;exitY=0.5;exitDx=0;exitDy=0;entryX=0.5;entryY=1;entryDx=0;entryDy=0;endArrow=none;endFill=0;strokeWidth=5;" parent="1" target="hcqY7P8i4j6jx_X3Lm_S-3" edge="1">
          <mxGeometry relative="1" as="geometry">
            <mxPoint x="-35" y="505" as="sourcePoint" />
          </mxGeometry>
        </mxCell>
        <mxCell id="m84s4OXWv2M9TysQhL6w-27" style="edgeStyle=orthogonalEdgeStyle;rounded=0;orthogonalLoop=1;jettySize=auto;html=1;exitX=0;exitY=0.5;exitDx=0;exitDy=0;entryX=0.5;entryY=1;entryDx=0;entryDy=0;strokeWidth=5;endArrow=none;endFill=0;" parent="1" target="hcqY7P8i4j6jx_X3Lm_S-2" edge="1">
          <mxGeometry relative="1" as="geometry">
            <mxPoint x="-145" y="505" as="sourcePoint" />
          </mxGeometry>
        </mxCell>
        <mxCell id="hcqY7P8i4j6jx_X3Lm_S-117" value="&lt;pre dir=&quot;ltr&quot; style=&quot;text-align: left; font-size: 11px;&quot; id=&quot;tw-target-text&quot; data-placeholder=&quot;Traducción&quot; class=&quot;tw-data-text tw-text-large tw-ta&quot;&gt;&lt;font style=&quot;font-size: 20px;&quot;&gt;Winner&lt;/font&gt;&lt;/pre&gt;" style="ellipse;whiteSpace=wrap;html=1;fillColor=#a0522d;strokeColor=#6D1F00;fontColor=#ffffff;strokeWidth=5;" parent="1" vertex="1">
          <mxGeometry x="345" y="190" width="80" height="50" as="geometry" />
        </mxCell>
        <mxCell id="hcqY7P8i4j6jx_X3Lm_S-119" value="&lt;pre dir=&quot;ltr&quot; style=&quot;text-align:left&quot; id=&quot;tw-target-text&quot; data-placeholder=&quot;Traducción&quot; class=&quot;tw-data-text tw-text-large tw-ta&quot;&gt;&lt;span style=&quot;font-size: 20px;&quot; lang=&quot;en&quot; class=&quot;Y2IQFc&quot;&gt;Round&lt;/span&gt;&lt;/pre&gt;" style="ellipse;whiteSpace=wrap;html=1;fillColor=#a0522d;strokeColor=#6D1F00;fontColor=#ffffff;strokeWidth=5;" parent="1" vertex="1">
          <mxGeometry x="345" y="380" width="80" height="50" as="geometry" />
        </mxCell>
        <mxCell id="ju82WPJQELYJs9G-tPqT-9" value="&lt;b&gt;&lt;font color=&quot;#007fff&quot; style=&quot;font-size: 20px;&quot;&gt;[1,1]&lt;/font&gt;&lt;/b&gt;" style="text;html=1;strokeColor=none;fillColor=none;align=center;verticalAlign=middle;whiteSpace=wrap;rounded=0;" parent="1" vertex="1">
          <mxGeometry x="-184" y="260" width="40" height="20" as="geometry" />
        </mxCell>
        <mxCell id="ju82WPJQELYJs9G-tPqT-12" value="&lt;b&gt;&lt;font color=&quot;#007fff&quot; style=&quot;font-size: 20px;&quot;&gt;[1,*]&lt;/font&gt;&lt;/b&gt;" style="text;html=1;strokeColor=none;fillColor=none;align=center;verticalAlign=middle;whiteSpace=wrap;rounded=0;" parent="1" vertex="1">
          <mxGeometry x="-447" y="260" width="40" height="20" as="geometry" />
        </mxCell>
        <mxCell id="ju82WPJQELYJs9G-tPqT-13" value="&lt;b&gt;&lt;font color=&quot;#007fff&quot; style=&quot;font-size: 20px;&quot;&gt;[1,1]&lt;/font&gt;&lt;/b&gt;" style="text;html=1;strokeColor=none;fillColor=none;align=center;verticalAlign=middle;whiteSpace=wrap;rounded=0;" parent="1" vertex="1">
          <mxGeometry x="-39" y="293" width="40" height="20" as="geometry" />
        </mxCell>
        <mxCell id="ju82WPJQELYJs9G-tPqT-14" value="&lt;b&gt;&lt;font color=&quot;#007fff&quot; style=&quot;font-size: 20px;&quot;&gt;[1,1]&lt;/font&gt;&lt;/b&gt;" style="text;html=1;strokeColor=none;fillColor=none;align=center;verticalAlign=middle;whiteSpace=wrap;rounded=0;" parent="1" vertex="1">
          <mxGeometry x="-38" y="248" width="40" height="20" as="geometry" />
        </mxCell>
        <mxCell id="ju82WPJQELYJs9G-tPqT-15" value="&lt;b&gt;&lt;font color=&quot;#007fff&quot; style=&quot;font-size: 20px;&quot;&gt;[1,*]&lt;/font&gt;&lt;/b&gt;" style="text;html=1;strokeColor=none;fillColor=none;align=center;verticalAlign=middle;whiteSpace=wrap;rounded=0;" parent="1" vertex="1">
          <mxGeometry x="169" y="258.5" width="40" height="25" as="geometry" />
        </mxCell>
        <mxCell id="ju82WPJQELYJs9G-tPqT-18" value="&lt;b&gt;&lt;font color=&quot;#007fff&quot; style=&quot;font-size: 20px;&quot;&gt;[1,1]&lt;/font&gt;&lt;/b&gt;" style="text;html=1;strokeColor=none;fillColor=none;align=center;verticalAlign=middle;whiteSpace=wrap;rounded=0;" parent="1" vertex="1">
          <mxGeometry x="88" y="333" width="40" height="20" as="geometry" />
        </mxCell>
        <mxCell id="m84s4OXWv2M9TysQhL6w-11" value="" style="endArrow=none;html=1;rounded=0;entryX=0.5;entryY=0;entryDx=0;entryDy=0;exitX=1;exitY=0.5;exitDx=0;exitDy=0;targetPerimeterSpacing=1;strokeWidth=6;endSize=5;" parent="1" source="hcqY7P8i4j6jx_X3Lm_S-4" edge="1">
          <mxGeometry width="50" height="50" relative="1" as="geometry">
            <mxPoint x="45" y="330" as="sourcePoint" />
            <mxPoint x="80" y="249.99999999999994" as="targetPoint" />
          </mxGeometry>
        </mxCell>
        <mxCell id="m84s4OXWv2M9TysQhL6w-12" value="&lt;pre dir=&quot;ltr&quot; style=&quot;text-align: left; font-size: 17px;&quot; id=&quot;tw-target-text&quot; data-placeholder=&quot;Traducción&quot; class=&quot;tw-data-text tw-text-large tw-ta&quot;&gt;Confront&lt;/pre&gt;" style="rhombus;whiteSpace=wrap;html=1;fillColor=#008a00;fontColor=#ffffff;strokeColor=#005700;strokeWidth=6;" parent="1" vertex="1">
          <mxGeometry x="25" y="250" width="110" height="70" as="geometry" />
        </mxCell>
        <mxCell id="m84s4OXWv2M9TysQhL6w-19" value="" style="edgeStyle=orthogonalEdgeStyle;rounded=0;orthogonalLoop=1;jettySize=auto;html=1;endSize=10;endArrow=none;endFill=0;strokeWidth=5;" parent="1" source="m84s4OXWv2M9TysQhL6w-15" target="m84s4OXWv2M9TysQhL6w-17" edge="1">
          <mxGeometry relative="1" as="geometry" />
        </mxCell>
        <mxCell id="m84s4OXWv2M9TysQhL6w-15" value="&lt;font style=&quot;font-size: 27px;&quot;&gt;Role&lt;/font&gt;" style="rounded=0;whiteSpace=wrap;html=1;fillColor=#1ba1e2;strokeColor=#006EAF;fontColor=#ffffff;strokeWidth=5;" parent="1" vertex="1">
          <mxGeometry x="-355" y="115" width="90" height="40" as="geometry" />
        </mxCell>
        <mxCell id="m84s4OXWv2M9TysQhL6w-18" value="" style="edgeStyle=orthogonalEdgeStyle;rounded=0;orthogonalLoop=1;jettySize=auto;html=1;strokeWidth=5;endArrow=none;endFill=0;" parent="1" source="m84s4OXWv2M9TysQhL6w-17" target="hcqY7P8i4j6jx_X3Lm_S-4" edge="1">
          <mxGeometry relative="1" as="geometry" />
        </mxCell>
        <mxCell id="m84s4OXWv2M9TysQhL6w-17" value="&lt;pre dir=&quot;ltr&quot; style=&quot;text-align:left&quot; id=&quot;tw-target-text&quot; data-placeholder=&quot;Traducción&quot; class=&quot;tw-data-text tw-text-large tw-ta&quot;&gt;&lt;font style=&quot;font-size: 18px;&quot;&gt;Belong&lt;/font&gt;&lt;/pre&gt;" style="rhombus;whiteSpace=wrap;html=1;fillColor=#008a00;fontColor=#ffffff;strokeColor=#005700;strokeWidth=6;" parent="1" vertex="1">
          <mxGeometry x="-145" y="100" width="110" height="70" as="geometry" />
        </mxCell>
        <mxCell id="m84s4OXWv2M9TysQhL6w-32" value="&lt;pre dir=&quot;ltr&quot; style=&quot;text-align: left; font-size: 11px;&quot; id=&quot;tw-target-text&quot; data-placeholder=&quot;Traducción&quot; class=&quot;tw-data-text tw-text-large tw-ta&quot;&gt;&lt;font style=&quot;font-size: 20px;&quot;&gt;Result&lt;/font&gt;&lt;/pre&gt;" style="ellipse;whiteSpace=wrap;html=1;fillColor=#a0522d;strokeColor=#6D1F00;fontColor=#ffffff;strokeWidth=5;" parent="1" vertex="1">
          <mxGeometry x="345" y="290" width="80" height="50" as="geometry" />
        </mxCell>
        <mxCell id="m84s4OXWv2M9TysQhL6w-40" style="edgeStyle=orthogonalEdgeStyle;rounded=0;orthogonalLoop=1;jettySize=auto;html=1;exitX=0;exitY=0.5;exitDx=0;exitDy=0;entryX=1;entryY=1;entryDx=0;entryDy=0;strokeWidth=5;endArrow=none;endFill=0;" parent="1" source="m84s4OXWv2M9TysQhL6w-33" edge="1">
          <mxGeometry relative="1" as="geometry">
            <mxPoint x="-62.5" y="522.5" as="targetPoint" />
          </mxGeometry>
        </mxCell>
        <mxCell id="m84s4OXWv2M9TysQhL6w-33" value="&lt;pre dir=&quot;ltr&quot; style=&quot;text-align: left; font-size: 11px;&quot; id=&quot;tw-target-text&quot; data-placeholder=&quot;Traducción&quot; class=&quot;tw-data-text tw-text-large tw-ta&quot;&gt;&lt;font style=&quot;font-size: 20px;&quot;&gt;Date&lt;/font&gt;&lt;/pre&gt;" style="ellipse;whiteSpace=wrap;html=1;fillColor=#a0522d;strokeColor=#6D1F00;fontColor=#ffffff;strokeWidth=5;" parent="1" vertex="1">
          <mxGeometry x="-38" y="600" width="80" height="50" as="geometry" />
        </mxCell>
        <mxCell id="m84s4OXWv2M9TysQhL6w-39" style="edgeStyle=orthogonalEdgeStyle;rounded=0;orthogonalLoop=1;jettySize=auto;html=1;exitX=1;exitY=0.5;exitDx=0;exitDy=0;entryX=0;entryY=1;entryDx=0;entryDy=0;endArrow=none;endFill=0;strokeWidth=5;" parent="1" source="m84s4OXWv2M9TysQhL6w-36" edge="1">
          <mxGeometry relative="1" as="geometry">
            <mxPoint x="-117.5" y="522.5" as="targetPoint" />
          </mxGeometry>
        </mxCell>
        <mxCell id="m84s4OXWv2M9TysQhL6w-36" value="&lt;pre dir=&quot;ltr&quot; style=&quot;text-align: left; font-size: 11px;&quot; id=&quot;tw-target-text&quot; data-placeholder=&quot;Traducción&quot; class=&quot;tw-data-text tw-text-large tw-ta&quot;&gt;&lt;font style=&quot;font-size: 17px;&quot;&gt;Status&lt;/font&gt;&lt;br&gt;&lt;/pre&gt;" style="ellipse;whiteSpace=wrap;html=1;fillColor=#a0522d;strokeColor=#6D1F00;fontColor=#ffffff;strokeWidth=5;" parent="1" vertex="1">
          <mxGeometry x="-235" y="600" width="80" height="50" as="geometry" />
        </mxCell>
        <mxCell id="m84s4OXWv2M9TysQhL6w-41" value="&lt;font style=&quot;font-size: 17px;&quot;&gt;Request&lt;/font&gt; " style="rhombus;whiteSpace=wrap;html=1;fillColor=#008a00;fontColor=#ffffff;strokeColor=#005700;strokeWidth=5;" parent="1" vertex="1">
          <mxGeometry x="-145" y="470" width="110" height="70" as="geometry" />
        </mxCell>
        <mxCell id="m84s4OXWv2M9TysQhL6w-42" value="&lt;b&gt;&lt;font color=&quot;#007fff&quot; style=&quot;font-size: 20px;&quot;&gt;[1,1]&lt;/font&gt;&lt;/b&gt;" style="text;html=1;strokeColor=none;fillColor=none;align=center;verticalAlign=middle;whiteSpace=wrap;rounded=0;" parent="1" vertex="1">
          <mxGeometry x="-255" y="110" width="40" height="20" as="geometry" />
        </mxCell>
        <mxCell id="m84s4OXWv2M9TysQhL6w-43" value="&lt;b&gt;&lt;font color=&quot;#007fff&quot; style=&quot;font-size: 20px;&quot;&gt;[1,*]&lt;/font&gt;&lt;/b&gt;" style="text;html=1;strokeColor=none;fillColor=none;align=center;verticalAlign=middle;whiteSpace=wrap;rounded=0;" parent="1" vertex="1">
          <mxGeometry x="-135" y="235" width="40" height="25" as="geometry" />
        </mxCell>
        <mxCell id="m84s4OXWv2M9TysQhL6w-44" value="&lt;b&gt;&lt;font color=&quot;#007fff&quot; style=&quot;font-size: 20px;&quot;&gt;[1,1]&lt;/font&gt;&lt;/b&gt;" style="text;html=1;strokeColor=none;fillColor=none;align=center;verticalAlign=middle;whiteSpace=wrap;rounded=0;" parent="1" vertex="1">
          <mxGeometry x="-135" y="313" width="40" height="20" as="geometry" />
        </mxCell>
        <mxCell id="m84s4OXWv2M9TysQhL6w-45" value="&lt;b&gt;&lt;font color=&quot;#007fff&quot; style=&quot;font-size: 20px;&quot;&gt;[1,*]&lt;/font&gt;&lt;/b&gt;" style="text;html=1;strokeColor=none;fillColor=none;align=center;verticalAlign=middle;whiteSpace=wrap;rounded=0;" parent="1" vertex="1">
          <mxGeometry x="85" y="405" width="40" height="25" as="geometry" />
        </mxCell>
        <mxCell id="m84s4OXWv2M9TysQhL6w-46" value="&lt;b&gt;&lt;font color=&quot;#007fff&quot; style=&quot;font-size: 20px;&quot;&gt;[1,1]&lt;/font&gt;&lt;/b&gt;" style="text;html=1;strokeColor=none;fillColor=none;align=center;verticalAlign=middle;whiteSpace=wrap;rounded=0;" parent="1" vertex="1">
          <mxGeometry x="-495" y="313" width="40" height="20" as="geometry" />
        </mxCell>
        <mxCell id="m84s4OXWv2M9TysQhL6w-50" style="edgeStyle=orthogonalEdgeStyle;rounded=0;orthogonalLoop=1;jettySize=auto;html=1;exitX=1;exitY=0.25;exitDx=0;exitDy=0;entryX=0;entryY=0.5;entryDx=0;entryDy=0;strokeWidth=5;endArrow=none;endFill=0;" parent="1" source="m84s4OXWv2M9TysQhL6w-52" target="m84s4OXWv2M9TysQhL6w-63" edge="1">
          <mxGeometry relative="1" as="geometry" />
        </mxCell>
        <mxCell id="m84s4OXWv2M9TysQhL6w-51" style="edgeStyle=orthogonalEdgeStyle;rounded=0;orthogonalLoop=1;jettySize=auto;html=1;exitX=1;exitY=0.75;exitDx=0;exitDy=0;entryX=0;entryY=0.5;entryDx=0;entryDy=0;strokeWidth=5;endArrow=none;endFill=0;" parent="1" source="m84s4OXWv2M9TysQhL6w-52" target="m84s4OXWv2M9TysQhL6w-64" edge="1">
          <mxGeometry relative="1" as="geometry" />
        </mxCell>
        <mxCell id="m84s4OXWv2M9TysQhL6w-78" value="" style="edgeStyle=orthogonalEdgeStyle;rounded=0;orthogonalLoop=1;jettySize=auto;html=1;strokeWidth=5;endArrow=none;endFill=0;" parent="1" source="m84s4OXWv2M9TysQhL6w-52" target="m84s4OXWv2M9TysQhL6w-72" edge="1">
          <mxGeometry relative="1" as="geometry" />
        </mxCell>
        <mxCell id="m84s4OXWv2M9TysQhL6w-52" value="" style="rounded=0;whiteSpace=wrap;html=1;fillColor=#f5f5f5;fontColor=#333333;strokeColor=#666666;strokeWidth=5;" parent="1" vertex="1">
          <mxGeometry x="-693" y="750" width="460" height="240" as="geometry" />
        </mxCell>
        <mxCell id="m84s4OXWv2M9TysQhL6w-53" value="" style="edgeStyle=orthogonalEdgeStyle;rounded=0;orthogonalLoop=1;jettySize=auto;html=1;endArrow=none;endFill=0;strokeWidth=5;" parent="1" source="m84s4OXWv2M9TysQhL6w-54" target="m84s4OXWv2M9TysQhL6w-71" edge="1">
          <mxGeometry relative="1" as="geometry" />
        </mxCell>
        <mxCell id="m84s4OXWv2M9TysQhL6w-54" value="&lt;font style=&quot;font-size: 27px;&quot;&gt;Tournament&lt;/font&gt;" style="rounded=0;whiteSpace=wrap;html=1;fillColor=#1ba1e2;strokeColor=#006EAF;fontColor=#ffffff;strokeWidth=5;" parent="1" vertex="1">
          <mxGeometry x="-538" y="920" width="160" height="40" as="geometry" />
        </mxCell>
        <mxCell id="m84s4OXWv2M9TysQhL6w-55" value="" style="edgeStyle=orthogonalEdgeStyle;rounded=0;orthogonalLoop=1;jettySize=auto;html=1;endArrow=none;endFill=0;strokeWidth=5;" parent="1" source="m84s4OXWv2M9TysQhL6w-56" edge="1">
          <mxGeometry relative="1" as="geometry">
            <mxPoint x="-513" y="845" as="targetPoint" />
          </mxGeometry>
        </mxCell>
        <mxCell id="m84s4OXWv2M9TysQhL6w-56" value="&lt;pre dir=&quot;ltr&quot; style=&quot;text-align: left; line-height: 100%; font-size: 27px;&quot; id=&quot;tw-target-text&quot; data-placeholder=&quot;Traducción&quot; class=&quot;tw-data-text tw-text-large tw-ta&quot;&gt;&lt;font style=&quot;font-size: 27px;&quot;&gt;User&lt;/font&gt;&lt;/pre&gt;" style="rounded=0;whiteSpace=wrap;html=1;fillColor=#1ba1e2;strokeColor=#006EAF;fontColor=#ffffff;strokeWidth=5;" parent="1" vertex="1">
          <mxGeometry x="-673" y="825" width="90" height="40" as="geometry" />
        </mxCell>
        <mxCell id="m84s4OXWv2M9TysQhL6w-57" style="edgeStyle=orthogonalEdgeStyle;rounded=0;orthogonalLoop=1;jettySize=auto;html=1;entryX=1;entryY=0.5;entryDx=0;entryDy=0;endArrow=none;endFill=0;strokeWidth=5;" parent="1" source="m84s4OXWv2M9TysQhL6w-58" edge="1">
          <mxGeometry relative="1" as="geometry">
            <mxPoint x="-403" y="845" as="targetPoint" />
          </mxGeometry>
        </mxCell>
        <mxCell id="m84s4OXWv2M9TysQhL6w-58" value="&lt;font style=&quot;font-size: 27px;&quot;&gt;Date&lt;/font&gt;" style="rounded=0;whiteSpace=wrap;html=1;fillColor=#1ba1e2;strokeColor=#006EAF;fontColor=#ffffff;perimeterSpacing=0;strokeWidth=5;" parent="1" vertex="1">
          <mxGeometry x="-323" y="825" width="80" height="40" as="geometry" />
        </mxCell>
        <mxCell id="m84s4OXWv2M9TysQhL6w-59" style="edgeStyle=orthogonalEdgeStyle;rounded=0;orthogonalLoop=1;jettySize=auto;html=1;exitX=1;exitY=0.5;exitDx=0;exitDy=0;entryX=1;entryY=0.5;entryDx=0;entryDy=0;" parent="1" edge="1">
          <mxGeometry relative="1" as="geometry">
            <mxPoint x="-388" y="845" as="sourcePoint" />
            <mxPoint x="-388" y="845" as="targetPoint" />
          </mxGeometry>
        </mxCell>
        <mxCell id="m84s4OXWv2M9TysQhL6w-60" style="edgeStyle=orthogonalEdgeStyle;rounded=0;orthogonalLoop=1;jettySize=auto;html=1;exitX=0.5;exitY=1;exitDx=0;exitDy=0;" parent="1" edge="1">
          <mxGeometry relative="1" as="geometry">
            <mxPoint x="-443" y="880" as="sourcePoint" />
            <mxPoint x="-443" y="880" as="targetPoint" />
          </mxGeometry>
        </mxCell>
        <mxCell id="m84s4OXWv2M9TysQhL6w-61" style="edgeStyle=orthogonalEdgeStyle;rounded=0;orthogonalLoop=1;jettySize=auto;html=1;exitX=0.5;exitY=1;exitDx=0;exitDy=0;" parent="1" source="m84s4OXWv2M9TysQhL6w-52" target="m84s4OXWv2M9TysQhL6w-52" edge="1">
          <mxGeometry relative="1" as="geometry" />
        </mxCell>
        <mxCell id="m84s4OXWv2M9TysQhL6w-62" value="&lt;font style=&quot;font-size: 27px;&quot;&gt;Match&lt;/font&gt;" style="text;html=1;strokeColor=none;fillColor=none;align=center;verticalAlign=middle;whiteSpace=wrap;rounded=0;" parent="1" vertex="1">
          <mxGeometry x="-333" y="950" width="60" height="30" as="geometry" />
        </mxCell>
        <mxCell id="m84s4OXWv2M9TysQhL6w-63" value="&lt;pre dir=&quot;ltr&quot; style=&quot;text-align: left; font-size: 11px;&quot; id=&quot;tw-target-text&quot; data-placeholder=&quot;Traducción&quot; class=&quot;tw-data-text tw-text-large tw-ta&quot;&gt;&lt;font style=&quot;font-size: 20px;&quot;&gt;Winner&lt;/font&gt;&lt;/pre&gt;" style="ellipse;whiteSpace=wrap;html=1;fillColor=#a0522d;strokeColor=#6D1F00;fontColor=#ffffff;strokeWidth=5;" parent="1" vertex="1">
          <mxGeometry x="-193" y="750" width="80" height="50" as="geometry" />
        </mxCell>
        <mxCell id="m84s4OXWv2M9TysQhL6w-64" value="&lt;pre dir=&quot;ltr&quot; style=&quot;text-align:left&quot; id=&quot;tw-target-text&quot; data-placeholder=&quot;Traducción&quot; class=&quot;tw-data-text tw-text-large tw-ta&quot;&gt;&lt;span style=&quot;font-size: 20px;&quot; lang=&quot;en&quot; class=&quot;Y2IQFc&quot;&gt;Round&lt;/span&gt;&lt;/pre&gt;" style="ellipse;whiteSpace=wrap;html=1;fillColor=#a0522d;strokeColor=#6D1F00;fontColor=#ffffff;strokeWidth=5;" parent="1" vertex="1">
          <mxGeometry x="-193" y="940" width="80" height="50" as="geometry" />
        </mxCell>
        <mxCell id="m84s4OXWv2M9TysQhL6w-66" value="&lt;b&gt;&lt;font color=&quot;#007fff&quot; style=&quot;font-size: 20px;&quot;&gt;[1,1]&lt;/font&gt;&lt;/b&gt;" style="text;html=1;strokeColor=none;fillColor=none;align=center;verticalAlign=middle;whiteSpace=wrap;rounded=0;" parent="1" vertex="1">
          <mxGeometry x="-577" y="853" width="40" height="20" as="geometry" />
        </mxCell>
        <mxCell id="m84s4OXWv2M9TysQhL6w-67" value="&lt;b&gt;&lt;font color=&quot;#007fff&quot; style=&quot;font-size: 20px;&quot;&gt;[1,1]&lt;/font&gt;&lt;/b&gt;" style="text;html=1;strokeColor=none;fillColor=none;align=center;verticalAlign=middle;whiteSpace=wrap;rounded=0;" parent="1" vertex="1">
          <mxGeometry x="-576" y="808" width="40" height="20" as="geometry" />
        </mxCell>
        <mxCell id="m84s4OXWv2M9TysQhL6w-68" value="&lt;b&gt;&lt;font color=&quot;#007fff&quot; style=&quot;font-size: 20px;&quot;&gt;[1,*]&lt;/font&gt;&lt;/b&gt;" style="text;html=1;strokeColor=none;fillColor=none;align=center;verticalAlign=middle;whiteSpace=wrap;rounded=0;" parent="1" vertex="1">
          <mxGeometry x="-369" y="818.5" width="40" height="25" as="geometry" />
        </mxCell>
        <mxCell id="m84s4OXWv2M9TysQhL6w-69" value="&lt;b&gt;&lt;font color=&quot;#007fff&quot; style=&quot;font-size: 20px;&quot;&gt;[1,1]&lt;/font&gt;&lt;/b&gt;" style="text;html=1;strokeColor=none;fillColor=none;align=center;verticalAlign=middle;whiteSpace=wrap;rounded=0;" parent="1" vertex="1">
          <mxGeometry x="-450" y="893" width="40" height="20" as="geometry" />
        </mxCell>
        <mxCell id="m84s4OXWv2M9TysQhL6w-70" value="" style="endArrow=none;html=1;rounded=0;entryX=0.5;entryY=0;entryDx=0;entryDy=0;exitX=1;exitY=0.5;exitDx=0;exitDy=0;targetPerimeterSpacing=1;strokeWidth=6;endSize=5;" parent="1" source="m84s4OXWv2M9TysQhL6w-56" edge="1">
          <mxGeometry width="50" height="50" relative="1" as="geometry">
            <mxPoint x="-493" y="890" as="sourcePoint" />
            <mxPoint x="-458" y="810" as="targetPoint" />
          </mxGeometry>
        </mxCell>
        <mxCell id="m84s4OXWv2M9TysQhL6w-71" value="&lt;pre dir=&quot;ltr&quot; style=&quot;text-align: left; font-size: 17px;&quot; id=&quot;tw-target-text&quot; data-placeholder=&quot;Traducción&quot; class=&quot;tw-data-text tw-text-large tw-ta&quot;&gt;Confront&lt;/pre&gt;" style="rhombus;whiteSpace=wrap;html=1;fillColor=#008a00;fontColor=#ffffff;strokeColor=#005700;strokeWidth=6;" parent="1" vertex="1">
          <mxGeometry x="-513" y="810" width="110" height="70" as="geometry" />
        </mxCell>
        <mxCell id="m84s4OXWv2M9TysQhL6w-72" value="&lt;pre dir=&quot;ltr&quot; style=&quot;text-align: left; font-size: 11px;&quot; id=&quot;tw-target-text&quot; data-placeholder=&quot;Traducción&quot; class=&quot;tw-data-text tw-text-large tw-ta&quot;&gt;&lt;font style=&quot;font-size: 20px;&quot;&gt;Result&lt;/font&gt;&lt;/pre&gt;" style="ellipse;whiteSpace=wrap;html=1;fillColor=#a0522d;strokeColor=#6D1F00;fontColor=#ffffff;strokeWidth=5;" parent="1" vertex="1">
          <mxGeometry x="-193" y="845" width="80" height="50" as="geometry" />
        </mxCell>
        <mxCell id="m84s4OXWv2M9TysQhL6w-189" style="edgeStyle=orthogonalEdgeStyle;rounded=0;orthogonalLoop=1;jettySize=auto;html=1;exitX=0;exitY=0.5;exitDx=0;exitDy=0;entryX=1;entryY=0.75;entryDx=0;entryDy=0;strokeWidth=5;endArrow=none;endFill=0;" parent="1" source="m84s4OXWv2M9TysQhL6w-133" target="m84s4OXWv2M9TysQhL6w-154" edge="1">
          <mxGeometry relative="1" as="geometry" />
        </mxCell>
        <mxCell id="m84s4OXWv2M9TysQhL6w-133" value="&lt;pre dir=&quot;ltr&quot; style=&quot;text-align: left; font-size: 11px;&quot; id=&quot;tw-target-text&quot; data-placeholder=&quot;Traducción&quot; class=&quot;tw-data-text tw-text-large tw-ta&quot;&gt;&lt;font style=&quot;font-size: 20px;&quot;&gt;Date&lt;/font&gt;&lt;/pre&gt;" style="ellipse;whiteSpace=wrap;html=1;fillColor=#a0522d;strokeColor=#6D1F00;fontColor=#ffffff;strokeWidth=5;" parent="1" vertex="1">
          <mxGeometry x="631" y="930" width="80" height="50" as="geometry" />
        </mxCell>
        <mxCell id="m84s4OXWv2M9TysQhL6w-188" style="edgeStyle=orthogonalEdgeStyle;rounded=0;orthogonalLoop=1;jettySize=auto;html=1;exitX=0;exitY=0.5;exitDx=0;exitDy=0;entryX=1;entryY=0.25;entryDx=0;entryDy=0;strokeWidth=5;endArrow=none;endFill=0;" parent="1" source="m84s4OXWv2M9TysQhL6w-135" target="m84s4OXWv2M9TysQhL6w-154" edge="1">
          <mxGeometry relative="1" as="geometry" />
        </mxCell>
        <mxCell id="m84s4OXWv2M9TysQhL6w-135" value="&lt;pre dir=&quot;ltr&quot; style=&quot;text-align: left; font-size: 11px;&quot; id=&quot;tw-target-text&quot; data-placeholder=&quot;Traducción&quot; class=&quot;tw-data-text tw-text-large tw-ta&quot;&gt;&lt;font style=&quot;font-size: 17px;&quot;&gt;Status&lt;/font&gt;&lt;br&gt;&lt;/pre&gt;" style="ellipse;whiteSpace=wrap;html=1;fillColor=#a0522d;strokeColor=#6D1F00;fontColor=#ffffff;strokeWidth=5;" parent="1" vertex="1">
          <mxGeometry x="631" y="720" width="80" height="50" as="geometry" />
        </mxCell>
        <mxCell id="m84s4OXWv2M9TysQhL6w-154" value="" style="rounded=0;whiteSpace=wrap;html=1;fillColor=#f5f5f5;fontColor=#333333;strokeColor=#666666;strokeWidth=5;" parent="1" vertex="1">
          <mxGeometry x="-30" y="730" width="580" height="250" as="geometry" />
        </mxCell>
        <mxCell id="m84s4OXWv2M9TysQhL6w-163" style="edgeStyle=orthogonalEdgeStyle;rounded=0;orthogonalLoop=1;jettySize=auto;html=1;exitX=0.5;exitY=1;exitDx=0;exitDy=0;" parent="1" source="m84s4OXWv2M9TysQhL6w-154" target="m84s4OXWv2M9TysQhL6w-154" edge="1">
          <mxGeometry relative="1" as="geometry" />
        </mxCell>
        <mxCell id="m84s4OXWv2M9TysQhL6w-174" value="" style="edgeStyle=orthogonalEdgeStyle;rounded=0;orthogonalLoop=1;jettySize=auto;html=1;strokeWidth=5;endArrow=none;endFill=0;" parent="1" target="m84s4OXWv2M9TysQhL6w-181" edge="1">
          <mxGeometry relative="1" as="geometry">
            <mxPoint x="76.99999999999977" y="872.037037037037" as="sourcePoint" />
          </mxGeometry>
        </mxCell>
        <mxCell id="m84s4OXWv2M9TysQhL6w-176" value="" style="edgeStyle=orthogonalEdgeStyle;rounded=0;orthogonalLoop=1;jettySize=auto;html=1;strokeWidth=5;endArrow=none;endFill=0;" parent="1" source="m84s4OXWv2M9TysQhL6w-177" target="m84s4OXWv2M9TysQhL6w-181" edge="1">
          <mxGeometry relative="1" as="geometry" />
        </mxCell>
        <mxCell id="m84s4OXWv2M9TysQhL6w-177" value="&lt;font style=&quot;font-size: 27px;&quot;&gt;Tournament&lt;/font&gt;" style="rounded=0;whiteSpace=wrap;html=1;fillColor=#1ba1e2;strokeColor=#006EAF;fontColor=#ffffff;strokeWidth=5;" parent="1" vertex="1">
          <mxGeometry x="371" y="852" width="160" height="40" as="geometry" />
        </mxCell>
        <mxCell id="m84s4OXWv2M9TysQhL6w-180" style="edgeStyle=orthogonalEdgeStyle;rounded=0;orthogonalLoop=1;jettySize=auto;html=1;exitX=0.5;exitY=1;exitDx=0;exitDy=0;" parent="1" edge="1">
          <mxGeometry relative="1" as="geometry">
            <mxPoint x="371" y="806.5" as="sourcePoint" />
            <mxPoint x="371" y="806.5" as="targetPoint" />
          </mxGeometry>
        </mxCell>
        <mxCell id="OIhTahyZ610Ylq-gmsro-2" value="" style="edgeStyle=orthogonalEdgeStyle;rounded=0;orthogonalLoop=1;jettySize=auto;html=1;strokeWidth=5;endArrow=none;endFill=0;" edge="1" parent="1" source="m84s4OXWv2M9TysQhL6w-181" target="OIhTahyZ610Ylq-gmsro-1">
          <mxGeometry relative="1" as="geometry" />
        </mxCell>
        <mxCell id="m84s4OXWv2M9TysQhL6w-181" value="&lt;font style=&quot;font-size: 17px;&quot;&gt;Request&lt;/font&gt; " style="rhombus;whiteSpace=wrap;html=1;fillColor=#008a00;fontColor=#ffffff;strokeColor=#005700;strokeWidth=5;" parent="1" vertex="1">
          <mxGeometry x="179" y="837" width="110" height="70" as="geometry" />
        </mxCell>
        <mxCell id="m84s4OXWv2M9TysQhL6w-182" value="&lt;b&gt;&lt;font color=&quot;#007fff&quot; style=&quot;font-size: 20px;&quot;&gt;[1,1]&lt;/font&gt;&lt;/b&gt;" style="text;html=1;strokeColor=none;fillColor=none;align=center;verticalAlign=middle;whiteSpace=wrap;rounded=0;" parent="1" vertex="1">
          <mxGeometry x="88" y="876.5" width="40" height="20" as="geometry" />
        </mxCell>
        <mxCell id="m84s4OXWv2M9TysQhL6w-183" value="&lt;b&gt;&lt;font color=&quot;#007fff&quot; style=&quot;font-size: 20px;&quot;&gt;[1,*]&lt;/font&gt;&lt;/b&gt;" style="text;html=1;strokeColor=none;fillColor=none;align=center;verticalAlign=middle;whiteSpace=wrap;rounded=0;" parent="1" vertex="1">
          <mxGeometry x="321" y="874" width="40" height="25" as="geometry" />
        </mxCell>
        <mxCell id="m84s4OXWv2M9TysQhL6w-190" value="&lt;font style=&quot;font-size: 25px;&quot;&gt;RequestInfo&lt;/font&gt;" style="text;whiteSpace=wrap;html=1;" parent="1" vertex="1">
          <mxGeometry x="380" y="920" width="110" height="30" as="geometry" />
        </mxCell>
        <mxCell id="m84s4OXWv2M9TysQhL6w-191" style="edgeStyle=orthogonalEdgeStyle;rounded=0;orthogonalLoop=1;jettySize=auto;html=1;exitX=1;exitY=0.5;exitDx=0;exitDy=0;entryX=0;entryY=0.5;entryDx=0;entryDy=0;strokeWidth=5;endArrow=none;endFill=0;" parent="1" source="m84s4OXWv2M9TysQhL6w-192" target="m84s4OXWv2M9TysQhL6w-195" edge="1">
          <mxGeometry relative="1" as="geometry" />
        </mxCell>
        <mxCell id="m84s4OXWv2M9TysQhL6w-192" value="&lt;font style=&quot;font-size: 27px;&quot;&gt;Deck&lt;/font&gt;" style="rounded=0;whiteSpace=wrap;html=1;fillColor=#1ba1e2;strokeColor=#006EAF;fontColor=#ffffff;strokeWidth=5;" parent="1" vertex="1">
          <mxGeometry x="-664" y="1175" width="90" height="40" as="geometry" />
        </mxCell>
        <mxCell id="m84s4OXWv2M9TysQhL6w-193" style="edgeStyle=orthogonalEdgeStyle;rounded=0;orthogonalLoop=1;jettySize=auto;html=1;exitX=0;exitY=0.5;exitDx=0;exitDy=0;entryX=1;entryY=0.5;entryDx=0;entryDy=0;strokeWidth=5;endArrow=none;endFill=0;" parent="1" source="m84s4OXWv2M9TysQhL6w-194" target="m84s4OXWv2M9TysQhL6w-195" edge="1">
          <mxGeometry relative="1" as="geometry" />
        </mxCell>
        <mxCell id="m84s4OXWv2M9TysQhL6w-194" value="&lt;pre dir=&quot;ltr&quot; style=&quot;text-align: left; line-height: 100%; font-size: 27px;&quot; id=&quot;tw-target-text&quot; data-placeholder=&quot;Traducción&quot; class=&quot;tw-data-text tw-text-large tw-ta&quot;&gt;&lt;font style=&quot;font-size: 27px;&quot;&gt;User&lt;/font&gt;&lt;/pre&gt;" style="rounded=0;whiteSpace=wrap;html=1;fillColor=#1ba1e2;strokeColor=#006EAF;fontColor=#ffffff;strokeWidth=5;" parent="1" vertex="1">
          <mxGeometry x="-274" y="1175" width="90" height="40" as="geometry" />
        </mxCell>
        <mxCell id="m84s4OXWv2M9TysQhL6w-195" value="&lt;div class=&quot;QmZWSe&quot;&gt;&lt;div class=&quot;DHcWmd&quot;&gt;&lt;/div&gt;&lt;/div&gt;&lt;pre dir=&quot;ltr&quot; style=&quot;text-align: left; font-size: 17px;&quot; id=&quot;tw-target-text&quot; data-placeholder=&quot;Traducción&quot; class=&quot;tw-data-text tw-text-large tw-ta&quot;&gt;Possess&lt;/pre&gt;" style="rhombus;whiteSpace=wrap;html=1;fillColor=#008a00;fontColor=#ffffff;strokeColor=#005700;strokeWidth=5;" parent="1" vertex="1">
          <mxGeometry x="-484" y="1160" width="110" height="70" as="geometry" />
        </mxCell>
        <mxCell id="m84s4OXWv2M9TysQhL6w-196" value="&lt;b&gt;&lt;font color=&quot;#007fff&quot; style=&quot;font-size: 20px;&quot;&gt;[1,1]&lt;/font&gt;&lt;/b&gt;" style="text;html=1;strokeColor=none;fillColor=none;align=center;verticalAlign=middle;whiteSpace=wrap;rounded=0;" parent="1" vertex="1">
          <mxGeometry x="-324" y="1170" width="40" height="20" as="geometry" />
        </mxCell>
        <mxCell id="m84s4OXWv2M9TysQhL6w-197" value="&lt;b&gt;&lt;font color=&quot;#007fff&quot; style=&quot;font-size: 20px;&quot;&gt;[1,*]&lt;/font&gt;&lt;/b&gt;" style="text;html=1;strokeColor=none;fillColor=none;align=center;verticalAlign=middle;whiteSpace=wrap;rounded=0;" parent="1" vertex="1">
          <mxGeometry x="-566" y="1170" width="40" height="20" as="geometry" />
        </mxCell>
        <mxCell id="m84s4OXWv2M9TysQhL6w-210" value="" style="edgeStyle=orthogonalEdgeStyle;rounded=0;orthogonalLoop=1;jettySize=auto;html=1;strokeWidth=5;endArrow=none;endFill=0;" parent="1" source="m84s4OXWv2M9TysQhL6w-202" target="m84s4OXWv2M9TysQhL6w-207" edge="1">
          <mxGeometry relative="1" as="geometry" />
        </mxCell>
        <mxCell id="m84s4OXWv2M9TysQhL6w-202" value="&lt;pre dir=&quot;ltr&quot; style=&quot;text-align: left; line-height: 100%; font-size: 27px;&quot; id=&quot;tw-target-text&quot; data-placeholder=&quot;Traducción&quot; class=&quot;tw-data-text tw-text-large tw-ta&quot;&gt;&lt;font style=&quot;font-size: 27px;&quot;&gt;User&lt;/font&gt;&lt;/pre&gt;" style="rounded=0;whiteSpace=wrap;html=1;fillColor=#1ba1e2;strokeColor=#006EAF;fontColor=#ffffff;strokeWidth=5;" parent="1" vertex="1">
          <mxGeometry x="380" y="1175" width="90" height="40" as="geometry" />
        </mxCell>
        <mxCell id="m84s4OXWv2M9TysQhL6w-204" value="" style="edgeStyle=orthogonalEdgeStyle;rounded=0;orthogonalLoop=1;jettySize=auto;html=1;endSize=10;endArrow=none;endFill=0;strokeWidth=5;" parent="1" source="m84s4OXWv2M9TysQhL6w-205" target="m84s4OXWv2M9TysQhL6w-207" edge="1">
          <mxGeometry relative="1" as="geometry" />
        </mxCell>
        <mxCell id="m84s4OXWv2M9TysQhL6w-205" value="&lt;font style=&quot;font-size: 27px;&quot;&gt;Role&lt;/font&gt;" style="rounded=0;whiteSpace=wrap;html=1;fillColor=#1ba1e2;strokeColor=#006EAF;fontColor=#ffffff;strokeWidth=5;" parent="1" vertex="1">
          <mxGeometry x="-10" y="1175" width="90" height="40" as="geometry" />
        </mxCell>
        <mxCell id="m84s4OXWv2M9TysQhL6w-207" value="&lt;pre dir=&quot;ltr&quot; style=&quot;text-align:left&quot; id=&quot;tw-target-text&quot; data-placeholder=&quot;Traducción&quot; class=&quot;tw-data-text tw-text-large tw-ta&quot;&gt;&lt;font style=&quot;font-size: 18px;&quot;&gt;Belong&lt;/font&gt;&lt;/pre&gt;" style="rhombus;whiteSpace=wrap;html=1;fillColor=#008a00;fontColor=#ffffff;strokeColor=#005700;strokeWidth=6;" parent="1" vertex="1">
          <mxGeometry x="170" y="1160" width="110" height="70" as="geometry" />
        </mxCell>
        <mxCell id="m84s4OXWv2M9TysQhL6w-208" value="&lt;b&gt;&lt;font color=&quot;#007fff&quot; style=&quot;font-size: 20px;&quot;&gt;[1,1]&lt;/font&gt;&lt;/b&gt;" style="text;html=1;strokeColor=none;fillColor=none;align=center;verticalAlign=middle;whiteSpace=wrap;rounded=0;" parent="1" vertex="1">
          <mxGeometry x="87" y="1170" width="40" height="20" as="geometry" />
        </mxCell>
        <mxCell id="m84s4OXWv2M9TysQhL6w-211" value="&lt;b&gt;&lt;font color=&quot;#007fff&quot; style=&quot;font-size: 20px;&quot;&gt;[1,*]&lt;/font&gt;&lt;/b&gt;" style="text;html=1;strokeColor=none;fillColor=none;align=center;verticalAlign=middle;whiteSpace=wrap;rounded=0;" parent="1" vertex="1">
          <mxGeometry x="331" y="1168" width="40" height="20" as="geometry" />
        </mxCell>
        <mxCell id="m84s4OXWv2M9TysQhL6w-212" value="&lt;pre dir=&quot;ltr&quot; style=&quot;text-align: left; line-height: 100%; font-size: 27px;&quot; id=&quot;tw-target-text&quot; data-placeholder=&quot;Traducción&quot; class=&quot;tw-data-text tw-text-large tw-ta&quot;&gt;&lt;font style=&quot;font-size: 27px;&quot;&gt;User&lt;/font&gt;&lt;/pre&gt;" style="rounded=0;whiteSpace=wrap;html=1;fillColor=#1ba1e2;strokeColor=#006EAF;fontColor=#ffffff;strokeWidth=5;" parent="1" vertex="1">
          <mxGeometry x="-11" y="850" width="90" height="40" as="geometry" />
        </mxCell>
        <mxCell id="OIhTahyZ610Ylq-gmsro-1" value="&lt;font style=&quot;font-size: 27px;&quot;&gt;Deck&lt;/font&gt;" style="rounded=0;whiteSpace=wrap;html=1;fillColor=#1ba1e2;strokeColor=#006EAF;fontColor=#ffffff;strokeWidth=5;" vertex="1" parent="1">
          <mxGeometry x="189" y="760" width="90" height="40" as="geometry" />
        </mxCell>
        <mxCell id="OIhTahyZ610Ylq-gmsro-4" value="&lt;b&gt;&lt;font color=&quot;#007fff&quot; style=&quot;font-size: 20px;&quot;&gt;[1,1]&lt;/font&gt;&lt;/b&gt;" style="text;html=1;strokeColor=none;fillColor=none;align=center;verticalAlign=middle;whiteSpace=wrap;rounded=0;" vertex="1" parent="1">
          <mxGeometry x="240" y="808" width="40" height="20" as="geometry" />
        </mxCell>
      </root>
    </mxGraphModel>
  </diagram>
</mxfile>
